<svg xmlns="http://www.w3.org/2000/svg" viewBox="0 0 64 64"><title>newspaper</title><g id="newspaper"><path d="M57,62H11l2.28-2.91a4,4,0,0,0,.85-2.48L14,2H62V57A5,5,0,0,1,57,62Z" fill="#fff"/><path d="M57,62H11l1.8-2.4c.78-1,1.2-.3,1.2-1.6V57H62v2S59.76,62,57,62Z" fill="#ccc"/><path d="M5,7h6a3,3,0,0,1,3,3V57a5,5,0,0,1-5,5H7a5,5,0,0,1-5-5V10A3,3,0,0,1,5,7Z" fill="#ffcb47"/><rect x="8" y="7" width="6" height="52" fill="#f59f27"/><path d="M14,57c0,2.21-1.79,5-4,5H7a5,5,0,0,1-5-5" fill="#fa3"/><rect x="22" y="25" width="15" height="8" fill="#ff504d"/><rect x="39" y="25" width="15" height="8" fill="#00c9e0"/><path d="M8,57V10A3,3,0,0,0,5,7H5a3,3,0,0,0-3,3V56a6,6,0,0,0,6,6H8a6,6,0,0,0,6-6V2H62V56a6,6,0,0,1-6,6H8" fill="none" stroke="#3e3948" stroke-miterlimit="10" stroke-width="2"/><line x1="5" y1="7" x2="14" y2="7" fill="none" stroke="#3e3948" stroke-miterlimit="10" stroke-width="2"/><polyline points="19 17 19 6 20 6 24 16 25 16 25 5" fill="none" stroke="#3e3948" stroke-miterlimit="10" stroke-width="2"/><polyline points="35 6 29 6 29 16 35 16" fill="none" stroke="#3e3948" stroke-miterlimit="10" stroke-width="2"/><line x1="35" y1="11" x2="29" y2="11" fill="none" stroke="#3e3948" stroke-miterlimit="10" stroke-width="2"/><polyline points="38 5 38 16 39 16 42 9 45 16 46 16 46 5" fill="none" stroke="#3e3948" stroke-miterlimit="10" stroke-width="2"/><path d="M57,9V8.5A2.5,2.5,0,0,0,54.5,6h-2A2.5,2.5,0,0,0,50,8.5h0A2.5,2.5,0,0,0,52.5,11h2A2.5,2.5,0,0,1,57,13.5h0A2.5,2.5,0,0,1,54.5,16h-2A2.5,2.5,0,0,1,50,13.5V13" fill="none" stroke="#3e3948" stroke-miterlimit="10" stroke-width="2"/><rect x="19" y="22" width="38" height="14" fill="none" stroke="#3e3948" stroke-miterlimit="10" stroke-width="2"/><line x1="18" y1="42" x2="37" y2="42" fill="none" stroke="#3e3948" stroke-miterlimit="10" stroke-width="2"/><line x1="18" y1="47" x2="37" y2="47" fill="none" stroke="#3e3948" stroke-miterlimit="10" stroke-width="2"/><line x1="18" y1="52" x2="37" y2="52" fill="none" stroke="#3e3948" stroke-miterlimit="10" stroke-width="2"/><line x1="39" y1="42" x2="58" y2="42" fill="none" stroke="#3e3948" stroke-miterlimit="10" stroke-width="2"/><line x1="39" y1="47" x2="58" y2="47" fill="none" stroke="#3e3948" stroke-miterlimit="10" stroke-width="2"/><line x1="39" y1="52" x2="58" y2="52" fill="none" stroke="#3e3948" stroke-miterlimit="10" stroke-width="2"/><rect x="24" y="28" width="11" height="2" fill="#fff"/><rect x="41" y="28" width="2" height="2" fill="#fff"/><rect x="45" y="28" width="7" height="2" fill="#fff"/></g></svg>